<svg xmlns="http://www.w3.org/2000/svg" width="240" height="60" viewBox="0 0 63.5 15.875">
  <path d="M51.635 15.61L41.01.265h21.25z"/>
  <path fill-opacity=".22" d="M14.302-.17L9.105-.11c-.254.003-.493.06-.705.168-.421.017-.834.205-1.132.556l-5.13 6.053a1.611 1.611 0 00.165 2.252c.66.578 1.65.502 2.218-.168l3.011-3.553v9.069c0 .885.702 1.607 1.573 1.597l5.197-.06a1.588 1.588 0 001.573-1.598V5.292l2.881 3.399c.569.67 1.558.745 2.218.168.66-.577.734-1.582.166-2.253L16.01.554a1.56 1.56 0 00-.97-.539 1.516 1.516 0 00-.738-.185z"/>
</svg>
