<svg xmlns="http://www.w3.org/2000/svg" width="240" height="60" viewBox="0 0 63.5 15.875">
  <path d="M51.635 15.61L41.01.265h21.25z"/>
  <path fill-opacity=".22" d="M5.564 4.572c-.32 1.896-.908 3.769-1.318 5.657-.227 1.164-.514 2.35-.229 3.52.107.44.503.983 1.325.978.578 0 1.264.172 1.718-.177.835-.56 1.082-1.352 1.367-2.074.802-2.458.968-4.975 1.602-7.45a14.118 14.118 0 01-4.465-.454zm10.485.003c-1.4.383-2.947.54-4.466.453.634 2.475.801 4.993 1.603 7.45.284.723.532 1.515 1.366 2.074.454.35 1.141.178 1.719.178.822.005 1.217-.539 1.324-.979.286-1.17-.002-2.356-.229-3.52-.41-1.888-.998-3.76-1.317-5.656z"/>
</svg>
